<?xml version="1.0" standalone="no"?>
<!DOCTYPE svg PUBLIC "-//W3C//DTD SVG 20010904//EN"
 "http://www.w3.org/TR/2001/REC-SVG-20010904/DTD/svg10.dtd">
<svg version="1.0" xmlns="http://www.w3.org/2000/svg"
 width="799.000000pt" height="799.000000pt" viewBox="0 0 799.000000 799.000000"
 preserveAspectRatio="xMidYMid meet">
<metadata>
Created by potrace 1.11, written by Peter Selinger 2001-2013
</metadata>
<g transform="translate(0.000000,799.000000) scale(0.100000,-0.100000)"
fill="#000000" stroke="none">
<path d="M3167 7044 c-1 -1 -45 -5 -97 -8 -52 -3 -106 -8 -120 -10 -14 -3 -47
-7 -75 -11 -27 -3 -66 -8 -85 -11 -19 -3 -48 -7 -65 -9 -115 -16 -193 -30
-281 -50 -611 -143 -1256 -576 -1800 -1209 -110 -129 -314 -394 -314 -409 0
-5 17 4 37 20 224 173 625 287 1003 285 84 -1 222 -10 259 -17 14 -2 47 -7 75
-10 73 -8 277 -60 376 -97 102 -37 281 -128 371 -188 495 -331 719 -895 588
-1478 -57 -253 -185 -495 -352 -664 -47 -47 -54 -58 -41 -68 11 -10 29 -3 92
37 245 159 488 273 692 328 279 74 448 48 645 -100 318 -240 440 -653 306
-1042 -16 -46 -25 -83 -21 -83 4 0 27 7 51 16 58 20 177 44 264 52 258 22 490
-11 720 -105 186 -77 304 -166 454 -344 57 -67 181 -251 181 -267 0 -7 3 -12
8 -12 4 0 12 -10 18 -23 6 -12 40 -79 76 -149 36 -70 81 -168 99 -217 l34 -90
285 -157 c157 -87 301 -166 320 -177 19 -11 64 -36 100 -55 l65 -36 -87 82
c-478 455 -788 1087 -782 1597 5 422 139 704 520 1089 207 209 575 527 817
706 77 57 115 92 92 86 -11 -3 -87 -17 -170 -31 -145 -25 -173 -29 -252 -40
-21 -3 -49 -8 -63 -10 -14 -3 -46 -7 -71 -10 -25 -3 -55 -7 -66 -9 -11 -3 -64
-10 -118 -16 -54 -6 -105 -13 -115 -15 -9 -2 -53 -6 -96 -10 -43 -4 -86 -9
-95 -10 -15 -3 -106 -12 -209 -20 -136 -11 -311 -13 -355 -4 -190 41 -368 208
-509 479 -22 41 -43 82 -47 90 -19 36 -69 148 -69 154 0 4 -8 26 -18 49 -10
23 -27 62 -37 87 -10 25 -23 59 -30 75 -7 17 -30 75 -50 130 -156 425 -237
597 -381 811 -252 373 -526 665 -779 830 -124 81 -121 79 -205 120 -131 64
-249 103 -360 120 -19 3 -51 9 -70 13 -19 4 -64 9 -100 10 -36 2 -87 4 -113 5
-26 1 -49 1 -50 0z"/>
</g>
</svg>
